<mxfile host="app.diagrams.net" agent="Mozilla/5.0 (Windows NT 10.0; Win64; x64; rv:133.0) Gecko/20100101 Firefox/133.0" version="25.0.3">
  <diagram name="Pagina-1" id="_hmgfsoMr_xI_Kh3dmla">
    <mxGraphModel dx="1050" dy="511" grid="1" gridSize="10" guides="1" tooltips="1" connect="1" arrows="1" fold="1" page="1" pageScale="1" pageWidth="827" pageHeight="1169" math="0" shadow="0">
      <root>
        <mxCell id="0" />
        <mxCell id="1" parent="0" />
        <mxCell id="EEyTpw31PaXVnW-Z2_q3-1" value="" style="shape=umlLifeline;perimeter=lifelinePerimeter;whiteSpace=wrap;html=1;container=1;dropTarget=0;collapsible=0;recursiveResize=0;outlineConnect=0;portConstraint=eastwest;newEdgeStyle={&quot;curved&quot;:0,&quot;rounded&quot;:0};participant=umlActor;" vertex="1" parent="1">
          <mxGeometry x="130" y="80" width="20" height="370" as="geometry" />
        </mxCell>
        <mxCell id="EEyTpw31PaXVnW-Z2_q3-2" value="" style="html=1;points=[[0,0,0,0,5],[0,1,0,0,-5],[1,0,0,0,5],[1,1,0,0,-5]];perimeter=orthogonalPerimeter;outlineConnect=0;targetShapes=umlLifeline;portConstraint=eastwest;newEdgeStyle={&quot;curved&quot;:0,&quot;rounded&quot;:0};" vertex="1" parent="EEyTpw31PaXVnW-Z2_q3-1">
          <mxGeometry x="5" y="40" width="10" height="330" as="geometry" />
        </mxCell>
        <mxCell id="EEyTpw31PaXVnW-Z2_q3-3" value=":RubricaController" style="shape=umlLifeline;perimeter=lifelinePerimeter;whiteSpace=wrap;html=1;container=1;dropTarget=0;collapsible=0;recursiveResize=0;outlineConnect=0;portConstraint=eastwest;newEdgeStyle={&quot;curved&quot;:0,&quot;rounded&quot;:0};" vertex="1" parent="1">
          <mxGeometry x="200" y="80" width="100" height="340" as="geometry" />
        </mxCell>
        <mxCell id="EEyTpw31PaXVnW-Z2_q3-5" value="" style="html=1;points=[[0,0,0,0,5],[0,1,0,0,-5],[1,0,0,0,5],[1,1,0,0,-5]];perimeter=orthogonalPerimeter;outlineConnect=0;targetShapes=umlLifeline;portConstraint=eastwest;newEdgeStyle={&quot;curved&quot;:0,&quot;rounded&quot;:0};" vertex="1" parent="EEyTpw31PaXVnW-Z2_q3-3">
          <mxGeometry x="45" y="70" width="10" height="270" as="geometry" />
        </mxCell>
        <mxCell id="EEyTpw31PaXVnW-Z2_q3-4" value="handleRicerca()" style="html=1;verticalAlign=bottom;endArrow=block;curved=0;rounded=0;" edge="1" parent="1" source="EEyTpw31PaXVnW-Z2_q3-2">
          <mxGeometry width="80" relative="1" as="geometry">
            <mxPoint x="150" y="160" as="sourcePoint" />
            <mxPoint x="240" y="160" as="targetPoint" />
          </mxGeometry>
        </mxCell>
        <mxCell id="EEyTpw31PaXVnW-Z2_q3-6" value=":RubricaView" style="shape=umlLifeline;perimeter=lifelinePerimeter;whiteSpace=wrap;html=1;container=1;dropTarget=0;collapsible=0;recursiveResize=0;outlineConnect=0;portConstraint=eastwest;newEdgeStyle={&quot;curved&quot;:0,&quot;rounded&quot;:0};" vertex="1" parent="1">
          <mxGeometry x="350" y="80" width="100" height="340" as="geometry" />
        </mxCell>
        <mxCell id="EEyTpw31PaXVnW-Z2_q3-18" value="" style="html=1;points=[[0,0,0,0,5],[0,1,0,0,-5],[1,0,0,0,5],[1,1,0,0,-5]];perimeter=orthogonalPerimeter;outlineConnect=0;targetShapes=umlLifeline;portConstraint=eastwest;newEdgeStyle={&quot;curved&quot;:0,&quot;rounded&quot;:0};" vertex="1" parent="EEyTpw31PaXVnW-Z2_q3-6">
          <mxGeometry x="45" y="80" width="10" height="80" as="geometry" />
        </mxCell>
        <mxCell id="EEyTpw31PaXVnW-Z2_q3-10" value=":Rubrica" style="shape=umlLifeline;perimeter=lifelinePerimeter;whiteSpace=wrap;html=1;container=1;dropTarget=0;collapsible=0;recursiveResize=0;outlineConnect=0;portConstraint=eastwest;newEdgeStyle={&quot;curved&quot;:0,&quot;rounded&quot;:0};" vertex="1" parent="1">
          <mxGeometry x="500" y="80" width="100" height="330" as="geometry" />
        </mxCell>
        <mxCell id="EEyTpw31PaXVnW-Z2_q3-15" value="" style="html=1;points=[[0,0,0,0,5],[0,1,0,0,-5],[1,0,0,0,5],[1,1,0,0,-5]];perimeter=orthogonalPerimeter;outlineConnect=0;targetShapes=umlLifeline;portConstraint=eastwest;newEdgeStyle={&quot;curved&quot;:0,&quot;rounded&quot;:0};" vertex="1" parent="EEyTpw31PaXVnW-Z2_q3-10">
          <mxGeometry x="45" y="170" width="10" height="160" as="geometry" />
        </mxCell>
        <mxCell id="EEyTpw31PaXVnW-Z2_q3-16" value="ricercaContatto()" style="html=1;verticalAlign=bottom;endArrow=block;curved=0;rounded=0;entryX=0;entryY=0;entryDx=0;entryDy=5;" edge="1" target="EEyTpw31PaXVnW-Z2_q3-15" parent="1">
          <mxGeometry relative="1" as="geometry">
            <mxPoint x="260" y="255" as="sourcePoint" />
          </mxGeometry>
        </mxCell>
        <mxCell id="EEyTpw31PaXVnW-Z2_q3-17" value="return" style="html=1;verticalAlign=bottom;endArrow=open;dashed=1;endSize=8;curved=0;rounded=0;" edge="1" source="EEyTpw31PaXVnW-Z2_q3-15" parent="1">
          <mxGeometry relative="1" as="geometry">
            <mxPoint x="260" y="325" as="targetPoint" />
          </mxGeometry>
        </mxCell>
        <mxCell id="EEyTpw31PaXVnW-Z2_q3-19" value="getText()" style="html=1;verticalAlign=bottom;endArrow=block;curved=0;rounded=0;entryX=0;entryY=0;entryDx=0;entryDy=5;" edge="1" target="EEyTpw31PaXVnW-Z2_q3-18" parent="1">
          <mxGeometry relative="1" as="geometry">
            <mxPoint x="260" y="165" as="sourcePoint" />
          </mxGeometry>
        </mxCell>
        <mxCell id="EEyTpw31PaXVnW-Z2_q3-20" value="return" style="html=1;verticalAlign=bottom;endArrow=open;dashed=1;endSize=8;curved=0;rounded=0;exitX=0;exitY=1;exitDx=0;exitDy=-5;" edge="1" source="EEyTpw31PaXVnW-Z2_q3-18" parent="1">
          <mxGeometry relative="1" as="geometry">
            <mxPoint x="260" y="235" as="targetPoint" />
          </mxGeometry>
        </mxCell>
        <mxCell id="EEyTpw31PaXVnW-Z2_q3-21" value="ordinaContatti()" style="html=1;verticalAlign=bottom;endArrow=block;curved=0;rounded=0;" edge="1" parent="1">
          <mxGeometry width="80" relative="1" as="geometry">
            <mxPoint x="260" y="350" as="sourcePoint" />
            <mxPoint x="540" y="350" as="targetPoint" />
          </mxGeometry>
        </mxCell>
        <mxCell id="EEyTpw31PaXVnW-Z2_q3-23" value="return" style="html=1;verticalAlign=bottom;endArrow=open;dashed=1;endSize=8;curved=0;rounded=0;" edge="1" parent="1">
          <mxGeometry relative="1" as="geometry">
            <mxPoint x="540" y="400" as="sourcePoint" />
            <mxPoint x="260" y="400" as="targetPoint" />
          </mxGeometry>
        </mxCell>
      </root>
    </mxGraphModel>
  </diagram>
</mxfile>
